<svg width="106" height="71" viewBox="0 0 106 71" fill="none" xmlns="http://www.w3.org/2000/svg">
<g filter="url(#filter0_i_8_12)">
<path d="M79.5781 0.6875C70.9571 0.6875 64.0827 5.01805 59.8344 8.6525L59.6846 8.78117L57.2652 11.4116L62.6061 20.1887L66.5591 16.2252C70.6955 12.732 75.313 10.8125 79.5781 10.8125C88.1844 10.8125 95.1875 17.6258 95.1875 26C95.1875 34.3742 88.1844 41.1875 79.5781 41.1875C66.5 41.1875 57.6111 23.9012 57.5225 23.7261C57.0078 22.6862 45.7353 0.6875 26.4219 0.6875C12.2321 0.6875 0.6875 12.0423 0.6875 26C0.6875 39.9577 12.2321 51.3125 26.4219 51.3125C33.3723 51.3125 40.213 48.5471 46.2057 43.3137L46.3344 43.1998L48.7348 40.5884L43.3918 31.8113L39.4198 35.7938C35.2812 39.3734 30.9064 41.1875 26.4219 41.1875C17.8156 41.1875 10.8125 34.3742 10.8125 26C10.8125 17.6258 17.8156 10.8125 26.4219 10.8125C39.5 10.8125 48.3889 28.0988 48.4775 28.2739C48.9922 29.3138 60.2647 51.3125 79.5781 51.3125C93.7679 51.3125 105.312 39.9577 105.312 26C105.312 12.0423 93.7679 0.6875 79.5781 0.6875Z" fill="#BEBCD0"/>
</g>
<g filter="url(#filter1_i_8_12)">
<path d="M49.4519 40.5383C49.4519 40.1864 49.3121 39.8489 49.0633 39.6001C48.8144 39.3512 48.4769 39.2114 48.125 39.2114C47.7731 39.2114 47.4356 39.3512 47.1867 39.6001C46.9379 39.8489 46.7981 40.1864 46.7981 40.5383C46.7981 42.9626 46.193 45.4148 44.9483 47.9068C44.3486 49.1036 43.5046 50.0298 42.5731 51.3156C41.7106 52.5045 40.8269 53.9562 40.8269 55.798C40.8269 57.0297 41.3162 58.211 42.1872 59.0819C43.0581 59.9529 44.2394 60.4422 45.4711 60.4422C46.2301 60.4422 47.4774 59.9433 48.1953 60.3015C48.7234 60.5669 49.0658 61.1773 49.4652 61.6019C50.1552 62.3317 51.1424 63.096 52.7692 63.096C54.396 63.096 55.3832 62.3317 56.0732 61.6019C56.4647 61.1866 56.819 60.5643 57.3431 60.3015C58.0597 59.9433 59.307 60.4422 60.0673 60.4422C61.299 60.4422 62.4803 59.9529 63.3513 59.0819C64.2222 58.211 64.7115 57.0297 64.7115 55.798C64.7115 53.9575 63.8291 52.5045 62.9653 51.3156C62.0338 50.0312 61.1899 49.1036 60.5901 47.9054C59.3454 45.4161 58.7404 42.964 58.7404 40.5383C58.7404 40.1864 58.6006 39.8489 58.3517 39.6001C58.1029 39.3512 57.7654 39.2114 57.4134 39.2114C57.0615 39.2114 56.724 39.3512 56.4752 39.6001C56.2263 39.8489 56.0865 40.1864 56.0865 40.5383C56.0865 43.4218 56.8084 46.2773 58.2176 49.093C58.9447 50.55 60.0912 51.8729 60.8183 52.8748C61.6145 53.9695 62.0577 54.8386 62.0577 55.798C62.0577 56.3258 61.848 56.8321 61.4747 57.2054C61.1014 57.5786 60.5952 57.7883 60.0673 57.7883C58.7191 57.7883 57.4572 57.2775 56.1568 57.929C55.305 58.3536 54.7768 59.1073 54.1426 59.7801C53.7365 60.2113 53.3995 60.4422 52.7692 60.4422C52.1389 60.4422 51.8006 60.2113 51.3958 59.7814C50.7656 59.1113 50.2282 58.351 49.3816 57.929C48.0812 57.2788 46.8206 57.7883 45.4711 57.7883C45.2098 57.7883 44.9509 57.7369 44.7094 57.6368C44.468 57.5368 44.2485 57.3902 44.0637 57.2054C43.8789 57.0206 43.7323 56.8011 43.6323 56.5596C43.5322 56.3182 43.4808 56.0593 43.4808 55.798C43.4808 54.8399 43.9253 53.9695 44.7201 52.8734C45.4473 51.8716 46.5937 50.55 47.3209 49.093C48.7301 46.2773 49.4519 43.4218 49.4519 40.5383Z" fill="#BEBCD0"/>
</g>
<g opacity="0.7" filter="url(#filter2_i_8_12)">
<path d="M34.5385 62.9231C34.5385 62.9231 41.375 67.5385 52.7692 67.5385C64.1635 67.5385 71 62.9231 71 62.9231" stroke="#BEBCD0" stroke-width="5" stroke-linecap="round" stroke-linejoin="round"/>
</g>
<defs>
<filter id="filter0_i_8_12" x="0.6875" y="0.6875" width="104.625" height="54.625" filterUnits="userSpaceOnUse" color-interpolation-filters="sRGB">
<feFlood flood-opacity="0" result="BackgroundImageFix"/>
<feBlend mode="normal" in="SourceGraphic" in2="BackgroundImageFix" result="shape"/>
<feColorMatrix in="SourceAlpha" type="matrix" values="0 0 0 0 0 0 0 0 0 0 0 0 0 0 0 0 0 0 127 0" result="hardAlpha"/>
<feOffset dy="4"/>
<feGaussianBlur stdDeviation="2"/>
<feComposite in2="hardAlpha" operator="arithmetic" k2="-1" k3="1"/>
<feColorMatrix type="matrix" values="0 0 0 0 0 0 0 0 0 0 0 0 0 0 0 0 0 0 0.25 0"/>
<feBlend mode="normal" in2="shape" result="effect1_innerShadow_8_12"/>
</filter>
<filter id="filter1_i_8_12" x="40.8269" y="39.2114" width="23.8846" height="27.8845" filterUnits="userSpaceOnUse" color-interpolation-filters="sRGB">
<feFlood flood-opacity="0" result="BackgroundImageFix"/>
<feBlend mode="normal" in="SourceGraphic" in2="BackgroundImageFix" result="shape"/>
<feColorMatrix in="SourceAlpha" type="matrix" values="0 0 0 0 0 0 0 0 0 0 0 0 0 0 0 0 0 0 127 0" result="hardAlpha"/>
<feOffset dy="4"/>
<feGaussianBlur stdDeviation="2"/>
<feComposite in2="hardAlpha" operator="arithmetic" k2="-1" k3="1"/>
<feColorMatrix type="matrix" values="0 0 0 0 0 0 0 0 0 0 0 0 0 0 0 0 0 0 0.25 0"/>
<feBlend mode="normal" in2="shape" result="effect1_innerShadow_8_12"/>
</filter>
<filter id="filter2_i_8_12" x="32.0382" y="60.4229" width="41.462" height="13.6157" filterUnits="userSpaceOnUse" color-interpolation-filters="sRGB">
<feFlood flood-opacity="0" result="BackgroundImageFix"/>
<feBlend mode="normal" in="SourceGraphic" in2="BackgroundImageFix" result="shape"/>
<feColorMatrix in="SourceAlpha" type="matrix" values="0 0 0 0 0 0 0 0 0 0 0 0 0 0 0 0 0 0 127 0" result="hardAlpha"/>
<feOffset dy="4"/>
<feGaussianBlur stdDeviation="2"/>
<feComposite in2="hardAlpha" operator="arithmetic" k2="-1" k3="1"/>
<feColorMatrix type="matrix" values="0 0 0 0 0 0 0 0 0 0 0 0 0 0 0 0 0 0 0.25 0"/>
<feBlend mode="normal" in2="shape" result="effect1_innerShadow_8_12"/>
</filter>
</defs>
</svg>
