<svg width="114" height="79" viewBox="0 0 114 79" fill="none" xmlns="http://www.w3.org/2000/svg">
<g filter="url(#filter0_d_8_13)">
<path d="M83.5781 0.6875C74.9571 0.6875 68.0827 5.01805 63.8344 8.6525L63.6846 8.78117L61.2652 11.4116L66.6061 20.1887L70.5591 16.2252C74.6955 12.732 79.313 10.8125 83.5781 10.8125C92.1844 10.8125 99.1875 17.6258 99.1875 26C99.1875 34.3742 92.1844 41.1875 83.5781 41.1875C70.5 41.1875 61.6111 23.9012 61.5225 23.7261C61.0078 22.6862 49.7353 0.6875 30.4219 0.6875C16.2321 0.6875 4.6875 12.0423 4.6875 26C4.6875 39.9577 16.2321 51.3125 30.4219 51.3125C37.3723 51.3125 44.213 48.5471 50.2057 43.3137L50.3344 43.1998L52.7348 40.5884L47.3918 31.8113L43.4198 35.7938C39.2812 39.3734 34.9064 41.1875 30.4219 41.1875C21.8156 41.1875 14.8125 34.3742 14.8125 26C14.8125 17.6258 21.8156 10.8125 30.4219 10.8125C43.5 10.8125 52.3889 28.0988 52.4775 28.2739C52.9922 29.3138 64.2647 51.3125 83.5781 51.3125C97.7679 51.3125 109.312 39.9577 109.312 26C109.312 12.0423 97.7679 0.6875 83.5781 0.6875Z" fill="#BEBCD0"/>
</g>
<g filter="url(#filter1_d_8_13)">
<path d="M53.4519 40.5383C53.4519 40.1864 53.3121 39.8489 53.0633 39.6001C52.8144 39.3512 52.4769 39.2114 52.125 39.2114C51.7731 39.2114 51.4356 39.3512 51.1867 39.6001C50.9379 39.8489 50.7981 40.1864 50.7981 40.5383C50.7981 42.9626 50.193 45.4148 48.9483 47.9068C48.3486 49.1036 47.5046 50.0298 46.5731 51.3156C45.7106 52.5045 44.8269 53.9562 44.8269 55.798C44.8269 57.0297 45.3162 58.211 46.1872 59.0819C47.0581 59.9529 48.2394 60.4422 49.4711 60.4422C50.2301 60.4422 51.4774 59.9433 52.1953 60.3015C52.7234 60.5669 53.0658 61.1773 53.4652 61.6019C54.1552 62.3317 55.1424 63.096 56.7692 63.096C58.396 63.096 59.3832 62.3317 60.0732 61.6019C60.4647 61.1866 60.819 60.5643 61.3431 60.3015C62.0597 59.9433 63.307 60.4422 64.0673 60.4422C65.299 60.4422 66.4803 59.9529 67.3513 59.0819C68.2222 58.211 68.7115 57.0297 68.7115 55.798C68.7115 53.9575 67.8291 52.5045 66.9653 51.3156C66.0338 50.0312 65.1899 49.1036 64.5901 47.9054C63.3454 45.4161 62.7404 42.964 62.7404 40.5383C62.7404 40.1864 62.6006 39.8489 62.3517 39.6001C62.1029 39.3512 61.7654 39.2114 61.4134 39.2114C61.0615 39.2114 60.724 39.3512 60.4752 39.6001C60.2263 39.8489 60.0865 40.1864 60.0865 40.5383C60.0865 43.4218 60.8084 46.2773 62.2176 49.093C62.9447 50.55 64.0912 51.8729 64.8183 52.8748C65.6145 53.9695 66.0577 54.8386 66.0577 55.798C66.0577 56.3258 65.848 56.8321 65.4747 57.2054C65.1014 57.5786 64.5952 57.7883 64.0673 57.7883C62.7191 57.7883 61.4572 57.2775 60.1568 57.929C59.305 58.3536 58.7768 59.1073 58.1426 59.7801C57.7365 60.2113 57.3995 60.4422 56.7692 60.4422C56.1389 60.4422 55.8006 60.2113 55.3958 59.7814C54.7656 59.1113 54.2282 58.351 53.3816 57.929C52.0812 57.2788 50.8206 57.7883 49.4711 57.7883C49.2098 57.7883 48.9509 57.7369 48.7094 57.6368C48.468 57.5368 48.2485 57.3902 48.0637 57.2054C47.8789 57.0206 47.7323 56.8011 47.6323 56.5597C47.5322 56.3182 47.4808 56.0593 47.4808 55.798C47.4808 54.8399 47.9253 53.9695 48.7201 52.8734C49.4473 51.8716 50.5937 50.55 51.3209 49.093C52.7301 46.2773 53.4519 43.4218 53.4519 40.5383Z" fill="#BEBCD0"/>
</g>
<g opacity="0.7" filter="url(#filter2_d_8_13)">
<path d="M38.5385 62.9231C38.5385 62.9231 45.375 67.5385 56.7692 67.5385C68.1635 67.5385 75 62.9231 75 62.9231" stroke="#BEBCD0" stroke-width="5" stroke-linecap="round" stroke-linejoin="round" shape-rendering="crispEdges"/>
</g>
<defs>
<filter id="filter0_d_8_13" x="0.6875" y="0.6875" width="112.625" height="58.625" filterUnits="userSpaceOnUse" color-interpolation-filters="sRGB">
<feFlood flood-opacity="0" result="BackgroundImageFix"/>
<feColorMatrix in="SourceAlpha" type="matrix" values="0 0 0 0 0 0 0 0 0 0 0 0 0 0 0 0 0 0 127 0" result="hardAlpha"/>
<feOffset dy="4"/>
<feGaussianBlur stdDeviation="2"/>
<feComposite in2="hardAlpha" operator="out"/>
<feColorMatrix type="matrix" values="0 0 0 0 0 0 0 0 0 0 0 0 0 0 0 0 0 0 0.25 0"/>
<feBlend mode="normal" in2="BackgroundImageFix" result="effect1_dropShadow_8_13"/>
<feBlend mode="normal" in="SourceGraphic" in2="effect1_dropShadow_8_13" result="shape"/>
</filter>
<filter id="filter1_d_8_13" x="40.8269" y="39.2114" width="31.8846" height="31.8845" filterUnits="userSpaceOnUse" color-interpolation-filters="sRGB">
<feFlood flood-opacity="0" result="BackgroundImageFix"/>
<feColorMatrix in="SourceAlpha" type="matrix" values="0 0 0 0 0 0 0 0 0 0 0 0 0 0 0 0 0 0 127 0" result="hardAlpha"/>
<feOffset dy="4"/>
<feGaussianBlur stdDeviation="2"/>
<feComposite in2="hardAlpha" operator="out"/>
<feColorMatrix type="matrix" values="0 0 0 0 0 0 0 0 0 0 0 0 0 0 0 0 0 0 0.25 0"/>
<feBlend mode="normal" in2="BackgroundImageFix" result="effect1_dropShadow_8_13"/>
<feBlend mode="normal" in="SourceGraphic" in2="effect1_dropShadow_8_13" result="shape"/>
</filter>
<filter id="filter2_d_8_13" x="32.0382" y="60.4229" width="49.462" height="17.6157" filterUnits="userSpaceOnUse" color-interpolation-filters="sRGB">
<feFlood flood-opacity="0" result="BackgroundImageFix"/>
<feColorMatrix in="SourceAlpha" type="matrix" values="0 0 0 0 0 0 0 0 0 0 0 0 0 0 0 0 0 0 127 0" result="hardAlpha"/>
<feOffset dy="4"/>
<feGaussianBlur stdDeviation="2"/>
<feComposite in2="hardAlpha" operator="out"/>
<feColorMatrix type="matrix" values="0 0 0 0 0 0 0 0 0 0 0 0 0 0 0 0 0 0 0.25 0"/>
<feBlend mode="normal" in2="BackgroundImageFix" result="effect1_dropShadow_8_13"/>
<feBlend mode="normal" in="SourceGraphic" in2="effect1_dropShadow_8_13" result="shape"/>
</filter>
</defs>
</svg>
